<?xml version="1.0" standalone="no"?>
<!DOCTYPE svg PUBLIC "-//W3C//DTD SVG 20010904//EN"
 "http://www.w3.org/TR/2001/REC-SVG-20010904/DTD/svg10.dtd">
<svg version="1.0" xmlns="http://www.w3.org/2000/svg"
 width="1280.000000pt" height="1263.000000pt" viewBox="0 0 1280.000000 1263.000000"
 preserveAspectRatio="xMidYMid meet">
<metadata>
Created by potrace 1.15, written by Peter Selinger 2001-2017
</metadata>
<g transform="translate(0.000000,1263.000000) scale(0.100000,-0.100000)"
fill="#000000" stroke="none">
<path d="M6210 12614 c-258 -69 -501 -416 -729 -1041 l-23 -61 -71 5 c-369 28
-615 -376 -440 -721 34 -68 127 -157 200 -194 l61 -31 -34 -163 c-35 -172
-112 -622 -140 -823 -9 -66 -18 -122 -20 -124 -2 -2 -70 46 -151 106 -934 693
-1715 1135 -2263 1282 -168 46 -237 55 -380 55 -112 -1 -146 -4 -198 -23 -142
-49 -223 -130 -273 -273 -20 -54 -23 -83 -22 -208 0 -121 4 -165 27 -265 57
-248 153 -495 325 -831 l100 -197 -40 -46 c-143 -162 -156 -409 -32 -599 47
-70 103 -117 193 -160 66 -32 85 -37 170 -40 76 -3 107 0 155 16 44 15 62 17
67 9 17 -31 259 -369 366 -512 66 -88 118 -161 117 -163 -1 -2 -92 -16 -201
-33 -1440 -214 -2425 -536 -2799 -914 -91 -92 -137 -164 -160 -250 -19 -75
-19 -125 0 -200 23 -86 69 -158 160 -250 212 -214 597 -399 1234 -591 10 -3
12 -17 7 -57 -9 -72 9 -176 43 -250 56 -124 154 -215 279 -258 66 -23 194 -27
263 -9 142 39 272 161 321 304 10 30 22 50 30 49 7 -1 93 -16 191 -33 98 -17
280 -46 404 -65 124 -19 227 -36 228 -37 1 -2 -45 -66 -102 -143 -920 -1227
-1416 -2246 -1344 -2760 19 -138 91 -257 193 -321 80 -51 153 -67 298 -68 175
-1 298 23 530 101 213 71 515 211 793 365 l107 60 40 -36 c94 -84 197 -126
313 -126 204 0 379 129 446 328 25 75 28 215 6 288 -8 27 -11 52 -7 55 4 4 66
48 137 99 72 51 197 142 278 203 81 60 149 108 151 106 2 -2 11 -58 20 -124
103 -730 255 -1420 422 -1915 222 -655 487 -1044 759 -1115 75 -19 125 -19
200 0 88 23 160 70 256 165 180 177 350 497 501 942 l43 127 67 0 c83 0 136
14 211 53 282 150 336 548 105 779 -27 27 -72 61 -100 75 -42 21 -49 29 -45
47 25 100 102 548 138 805 16 111 27 161 35 158 7 -2 74 -51 150 -108 807
-605 1589 -1061 2123 -1237 214 -71 336 -94 501 -94 125 -1 154 2 210 22 138
47 231 141 273 276 31 98 30 304 -2 455 -57 273 -220 665 -432 1046 l-85 150
63 60 c113 109 168 270 144 424 -38 244 -227 412 -464 412 -88 0 -153 -17
-224 -58 l-43 -25 -47 67 c-27 37 -110 151 -185 253 -76 101 -136 187 -133
189 2 3 84 16 182 29 1063 141 1979 375 2528 643 261 127 470 290 552 430 36
62 63 154 63 215 0 315 -421 624 -1190 873 -69 22 -163 52 -210 66 l-85 25 -1
88 c0 142 -55 267 -155 357 -243 219 -628 122 -744 -186 -10 -27 -21 -48 -26
-48 -4 0 -130 20 -281 45 -150 24 -353 55 -451 68 -98 13 -180 26 -182 29 -3
3 39 63 92 134 710 943 1197 1827 1314 2384 32 151 33 357 2 455 -42 135 -135
229 -273 276 -56 20 -85 23 -210 22 -122 0 -164 -4 -264 -27 -344 -79 -789
-277 -1255 -558 l-114 -69 -56 54 c-104 101 -214 143 -351 134 -186 -11 -338
-128 -411 -315 -19 -47 -23 -77 -23 -167 0 -96 3 -118 26 -173 l26 -62 -32
-22 c-17 -12 -93 -69 -170 -126 -76 -57 -143 -106 -150 -108 -8 -3 -19 47 -35
158 -172 1204 -446 2151 -761 2633 -83 126 -215 264 -301 313 -104 59 -212 75
-319 46z m223 -70 c135 -47 287 -212 427 -464 269 -484 513 -1381 665 -2445
14 -99 27 -190 29 -202 3 -19 -33 -51 -213 -195 -267 -213 -564 -461 -826
-690 l-199 -174 -205 179 c-324 283 -673 572 -968 801 -49 38 -63 55 -63 75 0
84 153 999 185 1111 4 12 18 14 67 11 266 -14 488 205 488 484 0 184 -88 337
-245 426 l-54 30 34 99 c78 222 206 491 309 645 33 49 96 126 141 170 147 147
281 190 428 139z m-4008 -1719 c501 -95 1253 -486 2115 -1102 107 -76 256
-185 331 -241 l135 -102 -13 -107 c-46 -383 -90 -845 -112 -1193 -21 -316 -20
-310 -44 -314 -12 -3 -107 -10 -212 -16 -341 -20 -1056 -88 -1325 -126 l-46
-6 -140 188 c-77 104 -194 265 -259 357 l-118 168 24 16 c49 33 111 109 144
177 94 190 58 413 -92 564 -141 143 -337 178 -518 93 l-64 -29 -24 41 c-134
229 -315 656 -372 875 -46 179 -60 392 -31 497 36 136 122 223 256 261 64 17
269 17 365 -1z m8221 -30 c60 -30 87 -52 116 -89 118 -157 110 -444 -22 -821
-193 -547 -628 -1286 -1234 -2094 -56 -74 -104 -139 -107 -144 -4 -5 -105 2
-235 17 -418 46 -1158 106 -1326 106 -58 0 -68 3 -68 18 0 23 -27 422 -41 592
-12 168 -64 674 -84 835 -8 66 -15 131 -15 145 0 21 28 46 161 145 89 66 174
128 190 139 l29 18 57 -56 c244 -242 645 -143 764 190 33 90 31 235 -4 329
-14 38 -25 70 -24 71 11 10 213 128 331 194 386 215 763 371 1040 430 71 15
124 19 242 17 l151 -2 79 -40z m-5458 -1557 c372 -293 1072 -886 1072 -907 0
-6 -367 -351 -513 -482 l-52 -47 -295 -11 c-162 -6 -335 -14 -384 -17 l-89 -7
7 142 c17 362 117 1421 134 1421 2 0 56 -41 120 -92z m2401 -90 c27 -229 56
-516 76 -763 19 -227 43 -599 39 -603 -1 -2 -121 1 -266 7 -145 6 -317 11
-383 11 l-120 0 -149 141 c-82 77 -209 195 -283 262 -73 66 -133 124 -133 127
0 15 519 460 840 720 305 247 345 279 351 279 3 1 16 -81 28 -181z m-1099
-1020 c188 -172 340 -316 340 -320 0 -2 -232 -3 -515 -3 -283 0 -515 1 -515 1
0 11 503 474 515 474 6 0 84 -68 175 -152z m227 -388 l195 0 413 -413 413
-413 7 -289 c4 -160 4 -427 0 -595 l-7 -304 -136 -145 c-76 -79 -262 -267
-415 -417 l-278 -272 -252 -4 c-139 -1 -407 -1 -596 0 l-343 4 -414 414 -414
413 -2 293 c-2 161 -2 429 0 596 l3 303 414 414 414 415 313 3 c172 2 353 2
402 0 49 -2 176 -3 283 -3z m828 -19 l160 -6 7 -75 c7 -71 29 -634 25 -635 -1
0 -167 165 -369 368 l-367 368 192 -7 c106 -3 264 -9 352 -13z m-2092 -157
c-95 -91 -260 -256 -367 -367 l-194 -201 4 99 c2 55 9 215 14 355 6 140 12
255 13 256 4 4 425 21 562 22 l140 2 -172 -166z m2827 115 c422 -29 1044 -90
1057 -103 6 -6 -371 -477 -547 -686 -201 -237 -451 -520 -459 -520 -4 0 -59
57 -123 128 -64 70 -182 197 -262 282 l-146 155 0 92 c0 119 -18 585 -25 642
l-5 44 113 -7 c61 -4 240 -16 397 -27z m-3423 -11 c-3 -18 -11 -191 -18 -385
l-13 -352 -124 -133 c-69 -73 -186 -199 -260 -280 -74 -82 -138 -148 -142
-148 -7 0 -236 259 -416 470 -108 128 -366 442 -491 601 l-92 117 32 6 c165
30 1265 131 1471 135 l58 1 -5 -32z m4893 -143 c140 -20 340 -50 445 -68 l189
-32 -3 -51 c-3 -64 21 -169 57 -242 37 -78 133 -172 214 -211 168 -80 368 -50
507 75 52 47 114 139 126 187 4 16 14 27 24 27 24 0 313 -90 466 -146 387
-139 692 -312 836 -473 28 -31 66 -88 86 -128 31 -63 35 -80 35 -148 0 -68 -4
-85 -35 -148 -43 -87 -111 -165 -210 -241 -343 -263 -994 -496 -1887 -676
-354 -72 -636 -117 -1136 -185 -40 -6 -44 -4 -76 37 -19 24 -97 122 -173 218
-185 233 -432 529 -654 782 -99 114 -181 210 -181 213 0 3 82 99 181 213 264
301 574 676 807 975 52 66 55 68 90 63 20 -3 152 -21 292 -41z m-6380 -157
c189 -239 511 -625 719 -862 91 -104 165 -191 164 -193 -1 -2 -60 -70 -131
-151 -273 -313 -501 -585 -717 -857 -87 -110 -163 -206 -170 -213 -9 -10 -33
-9 -126 3 -200 28 -651 101 -736 120 -21 5 -23 11 -23 63 0 159 -87 314 -225
404 -78 51 -150 71 -250 70 -179 -2 -336 -105 -412 -269 l-24 -52 -52 15
c-137 39 -455 152 -581 206 -372 158 -614 334 -700 510 -34 68 -38 84 -38 153
0 68 4 85 35 148 43 87 111 165 210 241 440 337 1368 619 2687 815 107 16 202
30 211 30 8 1 78 -79 159 -181z m1455 -1053 c0 -283 -1 -515 -1 -515 -14 0
-469 500 -469 515 0 8 97 119 215 246 118 127 222 239 230 250 8 10 17 18 20
19 3 0 5 -232 5 -515z m3100 395 c189 -200 357 -388 355 -397 -2 -13 -452
-503 -469 -510 -3 -2 -6 229 -6 512 0 283 3 514 6 513 3 -2 54 -55 114 -118z
m-3483 -597 c74 -82 191 -208 260 -281 l124 -133 13 -352 c7 -194 15 -367 18
-384 5 -32 4 -33 -28 -33 -170 0 -1321 105 -1496 136 l-32 6 92 117 c125 159
383 473 491 601 180 211 409 470 416 470 4 0 68 -66 142 -147z m4061 -40 c329
-377 846 -1008 834 -1019 -18 -19 -898 -97 -1454 -130 l-113 -6 5 43 c7 57 25
523 25 642 l0 92 146 155 c80 85 198 212 262 283 64 70 119 127 123 127 4 0
81 -84 172 -187z m-2923 -1172 c-32 -3 -652 18 -657 23 -1 1 -7 116 -13 256
-5 140 -12 298 -14 351 l-4 96 362 -361 361 -361 -35 -4z m2149 444 c-6 -154
-13 -314 -17 -355 l-7 -75 -160 -6 c-88 -4 -246 -10 -352 -13 l-192 -7 367
368 c202 203 368 368 369 368 1 0 -3 -126 -8 -280z m-4174 -370 c290 -34 701
-71 1005 -90 140 -9 265 -19 277 -21 24 -4 23 2 44 -314 22 -348 83 -981 118
-1243 l8 -57 -133 -100 c-73 -55 -206 -152 -296 -216 l-162 -117 -21 29 c-173
248 -509 282 -715 73 -100 -101 -146 -228 -138 -378 5 -79 16 -119 64 -227 11
-25 -485 -277 -741 -377 -151 -60 -313 -108 -440 -132 -99 -19 -293 -19 -360
-1 -138 37 -224 123 -261 261 -18 66 -18 249 0 350 97 551 559 1400 1310 2409
l140 188 46 -6 c25 -4 140 -17 255 -31z m5933 -111 c52 -69 141 -190 199 -271
l105 -145 -25 -27 c-46 -48 -96 -142 -111 -211 -58 -255 71 -497 310 -581 80
-28 210 -28 284 0 30 11 55 19 56 18 13 -13 135 -240 214 -397 224 -446 323
-760 323 -1025 0 -221 -62 -332 -228 -407 -76 -33 -281 -38 -428 -9 -340 68
-791 268 -1327 589 -282 169 -863 567 -1177 807 -60 46 -59 40 -38 210 20 161
72 667 84 835 14 170 41 569 41 593 0 14 10 17 68 17 170 0 1022 69 1348 109
228 28 195 40 302 -105z m-4088 -25 l295 -11 52 -47 c154 -139 513 -476 513
-482 0 -28 -1180 -1013 -1194 -998 -5 5 -51 412 -71 619 -23 237 -54 642 -61
801 l-7 142 89 -7 c49 -3 222 -11 384 -17z m2304 -31 c-2 -24 -8 -119 -14
-213 -12 -198 -35 -478 -55 -690 -20 -199 -66 -599 -70 -603 -14 -15 -1195
972 -1195 998 0 3 60 60 133 127 72 66 200 184 282 262 l150 141 155 1 c85 1
225 5 310 9 85 3 189 7 231 8 l77 2 -4 -42z m-874 15 c0 -12 -502 -473 -515
-473 -12 0 -515 463 -515 474 0 0 232 1 515 1 283 0 515 -1 515 -2z m-134
-897 c234 -202 509 -428 717 -590 75 -60 139 -111 141 -115 10 -18 -151 -1005
-167 -1017 -1 -1 -27 2 -57 6 -272 37 -520 -192 -520 -480 0 -189 109 -364
275 -441 57 -27 65 -34 59 -53 -3 -11 -31 -91 -61 -176 -191 -541 -429 -894
-655 -976 -24 -9 -76 -16 -115 -16 -63 0 -83 5 -148 36 -301 142 -590 721
-819 1641 -101 407 -232 1115 -262 1415 l-6 65 128 100 c283 221 695 565 974
812 l135 120 85 -75 c47 -41 180 -156 296 -256z"/>
<path d="M6140 7064 c-225 -44 -428 -196 -530 -399 -58 -115 -81 -216 -81
-350 0 -339 203 -621 525 -727 61 -20 91 -23 211 -23 120 0 150 3 210 23 293
98 487 334 524 639 37 306 -122 617 -389 757 -117 61 -181 78 -320 81 -69 2
-136 1 -150 -1z"/>
</g>
</svg>
