<?xml version="1.0" standalone="no"?>
<!DOCTYPE svg PUBLIC "-//W3C//DTD SVG 20010904//EN"
 "http://www.w3.org/TR/2001/REC-SVG-20010904/DTD/svg10.dtd">
<svg version="1.0" xmlns="http://www.w3.org/2000/svg"
 width="1280.000000pt" height="798.000000pt" viewBox="0 0 1280.000000 798.000000"
 preserveAspectRatio="xMidYMid meet">
<metadata>
Created by potrace 1.15, written by Peter Selinger 2001-2017
</metadata>
<g transform="translate(0.000000,798.000000) scale(0.100000,-0.100000)"
fill="#000000" stroke="none">
<path d="M0 3990 l0 -3990 6400 0 6400 0 0 3990 0 3990 -6400 0 -6400 0 0
-3990z m3669 3836 c-2 -2 -40 -14 -84 -25 -335 -85 -848 -303 -1175 -498 -738
-441 -1337 -1046 -1755 -1773 -213 -370 -351 -704 -488 -1175 -13 -44 -15 153
-16 1713 l-1 1762 1762 0 c969 0 1759 -2 1757 -4z m1151 -2331 l0 -2335 -2337
0 -2336 0 7 138 c69 1384 709 2640 1783 3499 717 573 1622 937 2523 1013 69 5
141 12 160 14 19 1 72 4 118 4 l82 2 0 -2335z m493 2325 c933 -56 1796 -257
2632 -615 1254 -536 2348 -1397 3163 -2490 950 -1273 1481 -2784 1538 -4380
l7 -185 -3841 0 -3842 0 0 3840 0 3840 85 0 c47 0 163 -5 258 -10z m7336
-3087 c0 -1704 -2 -3093 -4 -3088 -2 6 -23 93 -46 195 -187 837 -546 1702
-1017 2450 -313 497 -654 923 -1097 1366 -443 444 -844 767 -1345 1087 -754
480 -1630 846 -2480 1036 -102 23 -189 44 -195 46 -5 2 1384 4 3088 4 l3097 1
-1 -3097z m-9639 -3154 l0 -1432 -102 7 c-1233 83 -2277 908 -2633 2081 -63
209 -124 568 -125 733 l0 42 1430 0 1430 0 0 -1431z m228 1410 c-15 -11 -39
-35 -53 -52 l-25 -32 0 53 0 52 53 0 52 -1 -27 -20z m372 -204 l0 -225 -220 0
c-254 0 -238 -9 -195 106 33 87 100 180 167 231 79 60 105 72 246 112 1 1 2
-100 2 -224z m260 211 c225 -36 427 -137 591 -293 199 -191 316 -418 347 -676
l8 -67 -528 0 -528 0 1 517 c0 284 2 520 5 525 7 10 4 10 104 -6z m950 -248
l0 -262 -60 92 c-96 148 -270 316 -420 405 l-45 27 263 0 262 0 0 -262z
m-1210 -562 l0 -224 -42 10 c-192 42 -364 220 -395 406 l-6 32 222 0 221 0 0
-224z m-3281 -481 c163 -327 410 -656 671 -892 125 -114 327 -266 465 -352
132 -82 390 -209 540 -265 l120 -45 -987 -1 -988 0 0 988 1 987 49 -130 c28
-71 86 -202 129 -290z m2930 258 c2 -2 -19 -3 -47 -3 l-52 0 0 47 0 47 47 -44
c26 -25 50 -46 52 -47z m1561 -158 c0 -3 -5 -49 -11 -103 -79 -723 -586 -1312
-1287 -1496 -92 -24 -281 -55 -339 -56 l-23 0 0 830 0 830 830 0 c457 0 830
-2 830 -5z m0 -1160 l0 -495 -492 0 -493 0 114 60 c258 137 464 310 637 535
65 86 175 269 206 342 12 29 23 53 25 53 2 0 3 -223 3 -495z"/>
</g>
</svg>
